<svg xmlns="http://www.w3.org/2000/svg" width="25.906" height="20.721" viewBox="0 0 25.906 20.721">
  <g id="Group_3" data-name="Group 3" transform="translate(-943.05 -593)">
    <path id="Icon_awesome-code" data-name="Icon awesome-code" d="M11.288,20.7l-2.469-.716a.486.486,0,0,1-.332-.6L14.012.353a.486.486,0,0,1,.6-.332l2.469.716a.486.486,0,0,1,.332.6L11.891,20.372a.485.485,0,0,1-.6.332ZM6.674,16.163l1.761-1.878a.486.486,0,0,0-.032-.7L4.735,10.363,8.4,7.137a.482.482,0,0,0,.032-.7L6.674,4.563a.486.486,0,0,0-.688-.02L.153,10.006a.482.482,0,0,0,0,.708l5.832,5.468a.483.483,0,0,0,.688-.02Zm13.243.024,5.832-5.468a.482.482,0,0,0,0-.708L19.917,4.538a.49.49,0,0,0-.688.02L17.468,6.437a.486.486,0,0,0,.032.7l3.667,3.23L17.5,13.588a.482.482,0,0,0-.032.7l1.761,1.878a.486.486,0,0,0,.688.024Z" transform="translate(943.052 592.997)" fill="#5c25e6"/>
  </g>
</svg>
