<svg xmlns="http://www.w3.org/2000/svg" width="20" height="20" viewBox="0 0 20 20">
  <path id="Icon_material-phone-in-talk" data-name="Icon material-phone-in-talk" d="M23.389,18.389a12.623,12.623,0,0,1-3.967-.633,1.134,1.134,0,0,0-1.133.267l-2.444,2.444a16.717,16.717,0,0,1-7.322-7.322l2.444-2.456a1.067,1.067,0,0,0,.278-1.111,12.623,12.623,0,0,1-.633-3.967A1.114,1.114,0,0,0,9.5,4.5H5.611A1.114,1.114,0,0,0,4.5,5.611,18.887,18.887,0,0,0,23.389,24.5,1.114,1.114,0,0,0,24.5,23.389V19.5A1.114,1.114,0,0,0,23.389,18.389ZM22.278,14.5H24.5a10,10,0,0,0-10-10V6.722A7.772,7.772,0,0,1,22.278,14.5Zm-4.444,0h2.222A5.558,5.558,0,0,0,14.5,8.944v2.222A3.329,3.329,0,0,1,17.833,14.5Z" transform="translate(-4.5 -4.5)" fill="#e5e1e1"/>
</svg>
