<svg xmlns="http://www.w3.org/2000/svg" width="23.222" height="15.481" viewBox="0 0 23.222 15.481">
  <path id="Icon_awesome-eye" data-name="Icon awesome-eye" d="M23.081,11.652A12.931,12.931,0,0,0,11.611,4.5,12.933,12.933,0,0,0,.14,11.652a1.3,1.3,0,0,0,0,1.177,12.931,12.931,0,0,0,11.471,7.152,12.933,12.933,0,0,0,11.471-7.152A1.3,1.3,0,0,0,23.081,11.652ZM11.611,18.046a5.805,5.805,0,1,1,5.805-5.805A5.805,5.805,0,0,1,11.611,18.046Zm0-9.676a3.842,3.842,0,0,0-1.02.153,1.929,1.929,0,0,1-2.7,2.7,3.861,3.861,0,1,0,3.717-2.85Z" transform="translate(0 -4.5)" fill="#5c25e6"/>
</svg>
