<svg xmlns="http://www.w3.org/2000/svg" width="26.414" height="25.76" viewBox="0 0 26.414 25.76">
  <g id="Group_14" data-name="Group 14" transform="translate(0 0)">
    <path id="Icon_simple-github" data-name="Icon simple-github" d="M13.207.445A13.207,13.207,0,0,0,9.03,26.182c.66.124.9-.284.9-.635,0-.314-.011-1.145-.017-2.245-3.674.8-4.449-1.772-4.449-1.772A3.5,3.5,0,0,0,4,19.6c-1.2-.819.092-.8.092-.8a2.769,2.769,0,0,1,2.023,1.36,2.814,2.814,0,0,0,3.847,1.1,2.816,2.816,0,0,1,.836-1.766c-2.933-.33-6.016-1.466-6.016-6.526A5.1,5.1,0,0,1,6.14,9.418a4.7,4.7,0,0,1,.116-3.5s1.106-.354,3.632,1.354a12.451,12.451,0,0,1,6.6,0C19,5.569,20.106,5.923,20.106,5.923a4.826,4.826,0,0,1,.132,3.5,5.116,5.116,0,0,1,1.354,3.544c0,5.074-3.087,6.191-6.026,6.515a3.162,3.162,0,0,1,.891,2.443c0,1.768-.017,3.187-.017,3.616,0,.347.231.759.908.627A13.191,13.191,0,0,0,13.207.445" transform="translate(0 -0.445)" fill="#5c25e6"/>
  </g>
</svg>
