<svg xmlns="http://www.w3.org/2000/svg" width="23.112" height="23.112" viewBox="0 0 23.112 23.112">
  <path id="Icon_awesome-linkedin" data-name="Icon awesome-linkedin" d="M21.461,2.25H1.646A1.658,1.658,0,0,0,0,3.916V23.7a1.658,1.658,0,0,0,1.646,1.666H21.461A1.662,1.662,0,0,0,23.112,23.7V3.916A1.662,1.662,0,0,0,21.461,2.25ZM6.985,22.06H3.56V11.031H6.99V22.06ZM5.272,9.524A1.986,1.986,0,1,1,7.259,7.538,1.987,1.987,0,0,1,5.272,9.524ZM19.826,22.06H16.4V16.7c0-1.279-.026-2.925-1.78-2.925-1.785,0-2.058,1.393-2.058,2.832V22.06H9.136V11.031h3.286v1.506h.046a3.608,3.608,0,0,1,3.245-1.78c3.467,0,4.112,2.285,4.112,5.257Z" transform="translate(0 -2.25)" fill="#5c25e6"/>
</svg>
