<svg xmlns="http://www.w3.org/2000/svg" width="36.967" height="20" viewBox="0 0 36.967 20">
  <g id="Artwork_2" data-name="Artwork 2" transform="translate(18.484 10)">
    <g id="Group_21" data-name="Group 21" transform="translate(-18.484 -10)">
      <g id="Path_7" data-name="Path 7" fill="none" stroke-miterlimit="10">
        <path d="M33.447,4.411h-.891V3.521A3.52,3.52,0,0,0,29.035,0H3.521A3.52,3.52,0,0,0,0,3.521v8.546a3.52,3.52,0,0,0,3.521,3.521h.891v.891A3.52,3.52,0,0,0,7.932,20H33.447a3.52,3.52,0,0,0,3.521-3.521V7.932A3.52,3.52,0,0,0,33.447,4.411Z" stroke="none"/>
        <path d="M 3.520694732666016 0.8801670074462891 C 2.064704895019531 0.8801670074462891 0.8801651000976562 2.064706802368164 0.8801651000976562 3.520698547363281 L 0.8801651000976562 12.06718826293945 C 0.8801651000976562 13.52317810058594 2.064704895019531 14.70771789550781 3.520694732666016 14.70771789550781 L 5.291604995727539 14.70771789550781 L 5.291604995727539 16.47861862182617 C 5.291604995727539 17.93460845947266 6.47613525390625 19.11914825439453 7.932125091552734 19.11914825439453 L 33.44661712646484 19.11914825439453 C 34.90260696411133 19.11914825439453 36.0871467590332 17.93460845947266 36.0871467590332 16.47861862182617 L 36.0871467590332 7.932127952575684 C 36.0871467590332 6.476137161254883 34.90260696411133 5.291597366333008 33.44661712646484 5.291597366333008 L 31.67570495605469 5.291597366333008 L 31.67570495605469 3.520698547363281 C 31.67570495605469 2.064706802368164 30.49116516113281 0.8801670074462891 29.03517532348633 0.8801670074462891 L 3.520694732666016 0.8801670074462891 M 3.520694732666016 -1.9073486328125e-06 L 29.03517532348633 -1.9073486328125e-06 C 30.98036575317383 -1.9073486328125e-06 32.55587768554688 1.575508117675781 32.55587768554688 3.520698547363281 L 32.55587768554688 4.41142749786377 L 33.44661712646484 4.41142749786377 C 35.39179611206055 4.41142749786377 36.96731567382812 5.986948013305664 36.96731567382812 7.932127952575684 L 36.96731567382812 16.47861862182617 C 36.96731567382812 18.42380714416504 35.39179611206055 19.99931716918945 33.44661712646484 19.99931716918945 L 7.932125091552734 19.99931716918945 C 5.986946105957031 19.99931716918945 4.411434173583984 18.42380714416504 4.411434173583984 16.47861862182617 L 4.411434173583984 15.58788776397705 L 3.520694732666016 15.58788776397705 C 1.575515747070312 15.58788776397705 -3.814697265625e-06 14.01236724853516 -3.814697265625e-06 12.06718826293945 L -3.814697265625e-06 3.520698547363281 C -3.814697265625e-06 1.575508117675781 1.575515747070312 -1.9073486328125e-06 3.520694732666016 -1.9073486328125e-06 Z" stroke="none" fill="#fff"/>
      </g>
      <g id="Rectangle_30" data-name="Rectangle 30" transform="translate(4.411 4.411)" fill="none" stroke="#fff" stroke-miterlimit="10" stroke-width="0.88">
        <rect width="32.556" height="15.589" rx="3.521" stroke="none"/>
        <rect x="0.44" y="0.44" width="31.676" height="14.708" rx="3.081" fill="none"/>
      </g>
    </g>
  </g>
</svg>
